<mxfile host="app.diagrams.net" modified="2023-06-07T02:31:55.829Z" agent="Mozilla/5.0 (Windows NT 10.0; Win64; x64) AppleWebKit/537.36 (KHTML, like Gecko) Chrome/114.0.0.0 Safari/537.36" etag="L6pDZdgz7EcSn9X1qZ5o" version="21.1.8" type="github">
  <diagram name="Page-1" id="c7558073-3199-34d8-9f00-42111426c3f3">
    <mxGraphModel dx="814" dy="557" grid="1" gridSize="10" guides="1" tooltips="1" connect="1" arrows="1" fold="1" page="1" pageScale="1" pageWidth="826" pageHeight="1169" background="none" math="0" shadow="0">
      <root>
        <mxCell id="0" />
        <mxCell id="1" parent="0" />
        <mxCell id="ZklJ6SawLSP7vw5HTjSI-102" style="edgeStyle=orthogonalEdgeStyle;rounded=0;orthogonalLoop=1;jettySize=auto;html=1;exitX=0.5;exitY=1;exitDx=0;exitDy=0;entryX=0.5;entryY=0;entryDx=0;entryDy=0;" edge="1" parent="1" source="ZklJ6SawLSP7vw5HTjSI-98" target="ZklJ6SawLSP7vw5HTjSI-99">
          <mxGeometry relative="1" as="geometry" />
        </mxCell>
        <mxCell id="ZklJ6SawLSP7vw5HTjSI-98" value="Order" style="ellipse;whiteSpace=wrap;html=1;" vertex="1" parent="1">
          <mxGeometry x="361.5" y="40" width="80" height="50" as="geometry" />
        </mxCell>
        <mxCell id="ZklJ6SawLSP7vw5HTjSI-104" style="edgeStyle=orthogonalEdgeStyle;rounded=0;orthogonalLoop=1;jettySize=auto;html=1;exitX=0.5;exitY=1;exitDx=0;exitDy=0;entryX=0.5;entryY=0;entryDx=0;entryDy=0;" edge="1" parent="1" source="ZklJ6SawLSP7vw5HTjSI-99" target="ZklJ6SawLSP7vw5HTjSI-101">
          <mxGeometry relative="1" as="geometry" />
        </mxCell>
        <mxCell id="ZklJ6SawLSP7vw5HTjSI-99" value="Pembuatan RAB" style="shape=parallelogram;perimeter=parallelogramPerimeter;whiteSpace=wrap;html=1;fixedSize=1;" vertex="1" parent="1">
          <mxGeometry x="324" y="120" width="155" height="40" as="geometry" />
        </mxCell>
        <mxCell id="ZklJ6SawLSP7vw5HTjSI-107" style="edgeStyle=orthogonalEdgeStyle;rounded=0;orthogonalLoop=1;jettySize=auto;html=1;exitX=0.5;exitY=1;exitDx=0;exitDy=0;entryX=0.5;entryY=0;entryDx=0;entryDy=0;" edge="1" parent="1" source="ZklJ6SawLSP7vw5HTjSI-101" target="ZklJ6SawLSP7vw5HTjSI-106">
          <mxGeometry relative="1" as="geometry" />
        </mxCell>
        <mxCell id="ZklJ6SawLSP7vw5HTjSI-101" value="Pembuatan RAP" style="rounded=0;whiteSpace=wrap;html=1;" vertex="1" parent="1">
          <mxGeometry x="341.5" y="190" width="120" height="50" as="geometry" />
        </mxCell>
        <mxCell id="ZklJ6SawLSP7vw5HTjSI-111" style="edgeStyle=orthogonalEdgeStyle;rounded=0;orthogonalLoop=1;jettySize=auto;html=1;exitX=0;exitY=0.5;exitDx=0;exitDy=0;entryX=0.5;entryY=0;entryDx=0;entryDy=0;" edge="1" parent="1" source="ZklJ6SawLSP7vw5HTjSI-106" target="ZklJ6SawLSP7vw5HTjSI-108">
          <mxGeometry relative="1" as="geometry" />
        </mxCell>
        <mxCell id="ZklJ6SawLSP7vw5HTjSI-112" style="edgeStyle=orthogonalEdgeStyle;rounded=0;orthogonalLoop=1;jettySize=auto;html=1;exitX=1;exitY=0.5;exitDx=0;exitDy=0;entryX=0.5;entryY=0;entryDx=0;entryDy=0;" edge="1" parent="1" source="ZklJ6SawLSP7vw5HTjSI-106" target="ZklJ6SawLSP7vw5HTjSI-110">
          <mxGeometry relative="1" as="geometry" />
        </mxCell>
        <mxCell id="ZklJ6SawLSP7vw5HTjSI-113" style="edgeStyle=orthogonalEdgeStyle;rounded=0;orthogonalLoop=1;jettySize=auto;html=1;exitX=0.5;exitY=1;exitDx=0;exitDy=0;entryX=0.5;entryY=0;entryDx=0;entryDy=0;" edge="1" parent="1" source="ZklJ6SawLSP7vw5HTjSI-106" target="ZklJ6SawLSP7vw5HTjSI-109">
          <mxGeometry relative="1" as="geometry" />
        </mxCell>
        <mxCell id="ZklJ6SawLSP7vw5HTjSI-106" value="Klasifikasi&amp;nbsp;&lt;br&gt;RAP" style="rhombus;whiteSpace=wrap;html=1;" vertex="1" parent="1">
          <mxGeometry x="351.5" y="270" width="100" height="80" as="geometry" />
        </mxCell>
        <mxCell id="ZklJ6SawLSP7vw5HTjSI-108" value="Material" style="rounded=0;whiteSpace=wrap;html=1;" vertex="1" parent="1">
          <mxGeometry x="240" y="372" width="90" height="40" as="geometry" />
        </mxCell>
        <mxCell id="ZklJ6SawLSP7vw5HTjSI-109" value="Tools" style="rounded=0;whiteSpace=wrap;html=1;" vertex="1" parent="1">
          <mxGeometry x="355" y="372" width="95" height="40" as="geometry" />
        </mxCell>
        <mxCell id="ZklJ6SawLSP7vw5HTjSI-110" value="Jasa" style="rounded=0;whiteSpace=wrap;html=1;" vertex="1" parent="1">
          <mxGeometry x="470" y="372" width="86" height="40" as="geometry" />
        </mxCell>
        <mxCell id="ZklJ6SawLSP7vw5HTjSI-118" value="base on material RAB" style="endArrow=open;endSize=12;dashed=1;html=1;rounded=0;exitX=0;exitY=0.5;exitDx=0;exitDy=0;" edge="1" parent="1" source="ZklJ6SawLSP7vw5HTjSI-99">
          <mxGeometry width="160" relative="1" as="geometry">
            <mxPoint x="250" y="260" as="sourcePoint" />
            <mxPoint x="260" y="370" as="targetPoint" />
            <Array as="points">
              <mxPoint x="260" y="140" />
            </Array>
          </mxGeometry>
        </mxCell>
      </root>
    </mxGraphModel>
  </diagram>
</mxfile>
